<svg width="147" height="42" viewBox="0 0 147 42" fill="none" xmlns="http://www.w3.org/2000/svg">
<path d="M15.392 11.18C15.392 12.46 15.216 13.572 14.864 14.516C14.528 15.46 14.04 16.252 13.4 16.892C12.76 17.516 11.984 17.988 11.072 18.308C10.16 18.612 9.144 18.764 8.024 18.764C5.768 18.764 3.992 18.14 2.696 16.892C1.4 15.644 0.752 13.78 0.752 11.3V1.7H4.448V11.204C4.448 12.58 4.768 13.62 5.408 14.324C6.048 15.012 6.936 15.356 8.072 15.356C9.208 15.356 10.096 15.02 10.736 14.348C11.376 13.676 11.696 12.668 11.696 11.324V1.7H15.392V11.18ZM32.2846 12.092C32.2846 13.164 32.1166 14.116 31.7806 14.948C31.4606 15.764 31.0286 16.46 30.4846 17.036C29.9566 17.596 29.3406 18.02 28.6366 18.308C27.9326 18.596 27.1966 18.74 26.4286 18.74C25.4526 18.74 24.6446 18.548 24.0046 18.164C23.3806 17.78 22.8526 17.332 22.4206 16.82V22.34H18.7726V5.636H22.4206V7.484C22.8686 6.876 23.4046 6.38 24.0286 5.996C24.6686 5.596 25.4686 5.396 26.4286 5.396C27.1806 5.396 27.9086 5.54 28.6126 5.828C29.3166 6.116 29.9406 6.548 30.4846 7.124C31.0286 7.684 31.4606 8.38 31.7806 9.212C32.1166 10.028 32.2846 10.972 32.2846 12.044V12.092ZM28.6366 12.092V12.044C28.6366 11.516 28.5486 11.036 28.3726 10.604C28.2126 10.156 27.9886 9.78 27.7006 9.476C27.4126 9.156 27.0766 8.916 26.6926 8.756C26.3246 8.58 25.9246 8.492 25.4926 8.492C25.0606 8.492 24.6526 8.58 24.2686 8.756C23.9006 8.916 23.5726 9.156 23.2846 9.476C23.0126 9.78 22.7886 10.156 22.6126 10.604C22.4526 11.036 22.3726 11.516 22.3726 12.044V12.092C22.3726 12.62 22.4526 13.108 22.6126 13.556C22.7886 13.988 23.0126 14.364 23.2846 14.684C23.5726 14.988 23.9006 15.228 24.2686 15.404C24.6526 15.564 25.0606 15.644 25.4926 15.644C25.9246 15.644 26.3246 15.564 26.6926 15.404C27.0766 15.228 27.4126 14.988 27.7006 14.684C27.9886 14.364 28.2126 13.988 28.3726 13.556C28.5486 13.124 28.6366 12.636 28.6366 12.092ZM47.9039 15.596C47.9039 16.812 47.7519 17.844 47.4479 18.692C47.1599 19.556 46.7119 20.26 46.1039 20.804C45.5119 21.348 44.7679 21.748 43.8719 22.004C42.9759 22.26 41.9279 22.388 40.7279 22.388C39.6719 22.388 38.6639 22.268 37.7039 22.028C36.7439 21.804 35.8559 21.476 35.0399 21.044L36.2879 18.308C36.9599 18.676 37.6319 18.964 38.3039 19.172C38.9919 19.38 39.7679 19.484 40.6319 19.484C41.8799 19.484 42.7999 19.188 43.3919 18.596C43.9999 18.004 44.3039 17.132 44.3039 15.98V15.356C43.7599 16.012 43.1679 16.524 42.5279 16.892C41.8879 17.26 41.0799 17.444 40.1039 17.444C39.3519 17.444 38.6319 17.316 37.9439 17.06C37.2559 16.788 36.6479 16.396 36.1199 15.884C35.5919 15.372 35.1679 14.748 34.8479 14.012C34.5439 13.26 34.3919 12.404 34.3919 11.444V11.396C34.3919 10.436 34.5519 9.588 34.8719 8.852C35.1919 8.1 35.6159 7.468 36.1439 6.956C36.6719 6.444 37.2799 6.06 37.9679 5.804C38.6559 5.532 39.3679 5.396 40.1039 5.396C41.0959 5.396 41.9119 5.58 42.5519 5.948C43.1919 6.316 43.7599 6.772 44.2559 7.316V5.636H47.9039V15.596ZM44.3039 11.444V11.396C44.3039 10.964 44.2239 10.564 44.0639 10.196C43.9039 9.828 43.6799 9.516 43.3919 9.26C43.1199 8.988 42.7919 8.78 42.4079 8.636C42.0239 8.492 41.6079 8.42 41.1599 8.42C40.7119 8.42 40.2959 8.492 39.9119 8.636C39.5439 8.78 39.2159 8.988 38.9279 9.26C38.6559 9.516 38.4399 9.828 38.2799 10.196C38.1199 10.564 38.0399 10.964 38.0399 11.396V11.444C38.0399 12.34 38.3359 13.06 38.9279 13.604C39.5199 14.148 40.2639 14.42 41.1599 14.42C41.6079 14.42 42.0239 14.348 42.4079 14.204C42.7919 14.06 43.1199 13.86 43.3919 13.604C43.6799 13.332 43.9039 13.012 44.0639 12.644C44.2239 12.276 44.3039 11.876 44.3039 11.444ZM58.9153 9.212H58.7233C57.5073 9.212 56.5473 9.58 55.8433 10.316C55.1553 11.052 54.8113 12.196 54.8113 13.748V18.5H51.1633V5.636H54.8113V8.228C55.1793 7.348 55.6833 6.644 56.3233 6.116C56.9633 5.588 57.8273 5.348 58.9153 5.396V9.212ZM72.2585 18.5H68.7305V17.108C68.2825 17.604 67.7465 18.004 67.1225 18.308C66.4985 18.596 65.7385 18.74 64.8425 18.74C64.2345 18.74 63.6585 18.66 63.1145 18.5C62.5865 18.324 62.1225 18.068 61.7225 17.732C61.3225 17.396 61.0025 16.988 60.7625 16.508C60.5385 16.012 60.4265 15.444 60.4265 14.804V14.756C60.4265 14.052 60.5545 13.444 60.8105 12.932C61.0665 12.42 61.4185 11.996 61.8665 11.66C62.3305 11.324 62.8745 11.076 63.4985 10.916C64.1385 10.74 64.8425 10.652 65.6105 10.652C66.2665 10.652 66.8345 10.7 67.3145 10.796C67.8105 10.892 68.2905 11.02 68.7545 11.18V10.964C68.7545 10.196 68.5225 9.612 68.0585 9.212C67.5945 8.812 66.9065 8.612 65.9945 8.612C65.2905 8.612 64.6665 8.676 64.1225 8.804C63.5945 8.916 63.0345 9.084 62.4425 9.308L61.5305 6.524C62.2345 6.22 62.9705 5.972 63.7385 5.78C64.5065 5.588 65.4345 5.492 66.5225 5.492C68.5225 5.492 69.9785 5.98 70.8905 6.956C71.8025 7.932 72.2585 9.292 72.2585 11.036V18.5ZM68.8025 13.964V13.316C68.4825 13.172 68.1225 13.06 67.7225 12.98C67.3385 12.884 66.9225 12.836 66.4745 12.836C65.6905 12.836 65.0745 12.988 64.6265 13.292C64.1785 13.596 63.9545 14.036 63.9545 14.612V14.66C63.9545 15.156 64.1385 15.54 64.5065 15.812C64.8745 16.084 65.3545 16.22 65.9465 16.22C66.8105 16.22 67.4985 16.012 68.0105 15.596C68.5385 15.18 68.8025 14.636 68.8025 13.964ZM88.3336 18.5H84.6856V16.652C84.2376 17.26 83.6936 17.764 83.0536 18.164C82.4296 18.548 81.6376 18.74 80.6776 18.74C79.9256 18.74 79.1976 18.596 78.4936 18.308C77.7896 18.02 77.1656 17.596 76.6216 17.036C76.0776 16.46 75.6376 15.764 75.3016 14.948C74.9816 14.116 74.8216 13.164 74.8216 12.092V12.044C74.8216 10.972 74.9816 10.028 75.3016 9.212C75.6376 8.38 76.0696 7.684 76.5976 7.124C77.1416 6.548 77.7656 6.116 78.4696 5.828C79.1736 5.54 79.9096 5.396 80.6776 5.396C81.6536 5.396 82.4536 5.588 83.0776 5.972C83.7176 6.356 84.2536 6.804 84.6856 7.316V0.98H88.3336V18.5ZM84.7336 12.092V12.044C84.7336 11.516 84.6456 11.036 84.4696 10.604C84.3096 10.156 84.0856 9.78 83.7976 9.476C83.5256 9.156 83.1976 8.916 82.8136 8.756C82.4456 8.58 82.0456 8.492 81.6136 8.492C81.1816 8.492 80.7736 8.58 80.3896 8.756C80.0216 8.916 79.6936 9.156 79.4056 9.476C79.1176 9.78 78.8856 10.148 78.7096 10.58C78.5496 11.012 78.4696 11.5 78.4696 12.044V12.092C78.4696 12.62 78.5496 13.108 78.7096 13.556C78.8856 13.988 79.1176 14.364 79.4056 14.684C79.6936 14.988 80.0216 15.228 80.3896 15.404C80.7736 15.564 81.1816 15.644 81.6136 15.644C82.0456 15.644 82.4456 15.564 82.8136 15.404C83.1976 15.228 83.5256 14.988 83.7976 14.684C84.0856 14.364 84.3096 13.988 84.4696 13.556C84.6456 13.108 84.7336 12.62 84.7336 12.092ZM95.5049 4.22H91.6649V0.98H95.5049V4.22ZM95.4089 18.5H91.7609V5.636H95.4089V18.5ZM109.899 18.5H106.371V17.108C105.923 17.604 105.387 18.004 104.763 18.308C104.139 18.596 103.379 18.74 102.483 18.74C101.875 18.74 101.299 18.66 100.755 18.5C100.227 18.324 99.7631 18.068 99.3631 17.732C98.9631 17.396 98.6431 16.988 98.4031 16.508C98.1791 16.012 98.0671 15.444 98.0671 14.804V14.756C98.0671 14.052 98.1951 13.444 98.4511 12.932C98.7071 12.42 99.0591 11.996 99.5071 11.66C99.9711 11.324 100.515 11.076 101.139 10.916C101.779 10.74 102.483 10.652 103.251 10.652C103.907 10.652 104.475 10.7 104.955 10.796C105.451 10.892 105.931 11.02 106.395 11.18V10.964C106.395 10.196 106.163 9.612 105.699 9.212C105.235 8.812 104.547 8.612 103.635 8.612C102.931 8.612 102.307 8.676 101.763 8.804C101.235 8.916 100.675 9.084 100.083 9.308L99.1711 6.524C99.8751 6.22 100.611 5.972 101.379 5.78C102.147 5.588 103.075 5.492 104.163 5.492C106.163 5.492 107.619 5.98 108.531 6.956C109.443 7.932 109.899 9.292 109.899 11.036V18.5ZM106.443 13.964V13.316C106.123 13.172 105.763 13.06 105.363 12.98C104.979 12.884 104.563 12.836 104.115 12.836C103.331 12.836 102.715 12.988 102.267 13.292C101.819 13.596 101.595 14.036 101.595 14.612V14.66C101.595 15.156 101.779 15.54 102.147 15.812C102.515 16.084 102.995 16.22 103.587 16.22C104.451 16.22 105.139 16.012 105.651 15.596C106.179 15.18 106.443 14.636 106.443 13.964Z" fill="black"/>
<path d="M7.498 39.5H0.456V29.7H7.428V30.372H1.184V34.222H6.798V34.894H1.184V38.828H7.498V39.5ZM10.4649 39.5H9.77891V29.28H10.4649V39.5ZM13.4052 36.21C13.4332 36.658 13.5312 37.0547 13.6992 37.4C13.8672 37.7453 14.0772 38.0393 14.3292 38.282C14.5812 38.5247 14.8659 38.7113 15.1832 38.842C15.5099 38.9633 15.8506 39.024 16.2052 39.024C16.7652 39.024 17.2366 38.9167 17.6192 38.702C18.0112 38.4873 18.3566 38.2213 18.6552 37.904L19.1312 38.324C18.7672 38.716 18.3519 39.038 17.8852 39.29C17.4279 39.542 16.8586 39.668 16.1772 39.668C15.7106 39.668 15.2626 39.5793 14.8332 39.402C14.4132 39.2247 14.0399 38.9727 13.7132 38.646C13.3959 38.3193 13.1439 37.9273 12.9572 37.47C12.7706 37.0127 12.6772 36.504 12.6772 35.944V35.916C12.6772 35.4027 12.7612 34.922 12.9292 34.474C13.1066 34.0167 13.3446 33.62 13.6432 33.284C13.9512 32.948 14.3106 32.682 14.7212 32.486C15.1319 32.29 15.5799 32.192 16.0652 32.192C16.5692 32.192 17.0219 32.29 17.4232 32.486C17.8246 32.6727 18.1652 32.934 18.4452 33.27C18.7346 33.606 18.9539 34.0027 19.1032 34.46C19.2619 34.908 19.3412 35.398 19.3412 35.93V35.958C19.3412 36.0047 19.3412 36.0467 19.3412 36.084C19.3412 36.112 19.3366 36.154 19.3272 36.21H13.4052ZM13.4052 35.594H18.5992C18.5712 35.23 18.4966 34.8847 18.3752 34.558C18.2632 34.222 18.0999 33.928 17.8852 33.676C17.6799 33.4147 17.4232 33.2093 17.1152 33.06C16.8072 32.9013 16.4479 32.822 16.0372 32.822C15.6826 32.822 15.3512 32.892 15.0432 33.032C14.7352 33.172 14.4646 33.368 14.2312 33.62C14.0072 33.8627 13.8206 34.1567 13.6712 34.502C13.5219 34.838 13.4332 35.202 13.4052 35.594ZM27.2595 32.36L24.0535 39.556H23.4655L20.2595 32.36H21.0575L23.7595 38.73L26.4895 32.36H27.2595ZM34.3525 39.5H33.6805V38.31C33.5592 38.478 33.4098 38.646 33.2325 38.814C33.0645 38.9727 32.8685 39.1173 32.6445 39.248C32.4205 39.3693 32.1638 39.4673 31.8745 39.542C31.5945 39.626 31.2865 39.668 30.9505 39.668C30.6145 39.668 30.2832 39.6213 29.9565 39.528C29.6298 39.4347 29.3358 39.2947 29.0745 39.108C28.8132 38.9213 28.5985 38.688 28.4305 38.408C28.2718 38.128 28.1925 37.8013 28.1925 37.428V37.4C28.1925 37.0267 28.2672 36.6953 28.4165 36.406C28.5752 36.1167 28.7898 35.874 29.0605 35.678C29.3312 35.482 29.6578 35.3327 30.0405 35.23C30.4232 35.1273 30.8478 35.076 31.3145 35.076C31.8185 35.076 32.2525 35.104 32.6165 35.16C32.9805 35.216 33.3352 35.2907 33.6805 35.384V35.076C33.6805 34.348 33.4705 33.802 33.0505 33.438C32.6398 33.074 32.0658 32.892 31.3285 32.892C30.8898 32.892 30.4885 32.948 30.1245 33.06C29.7605 33.1627 29.4152 33.298 29.0885 33.466L28.8365 32.864C29.2285 32.6773 29.6252 32.528 30.0265 32.416C30.4278 32.304 30.8758 32.248 31.3705 32.248C32.2945 32.248 33.0225 32.4813 33.5545 32.948C34.0865 33.4147 34.3525 34.1147 34.3525 35.048V39.5ZM33.6945 36.826V36.014C33.3958 35.9393 33.0458 35.8693 32.6445 35.804C32.2432 35.7293 31.7858 35.692 31.2725 35.692C30.5165 35.692 29.9332 35.846 29.5225 36.154C29.1212 36.4527 28.9205 36.854 28.9205 37.358V37.386C28.9205 37.6473 28.9765 37.8807 29.0885 38.086C29.2005 38.282 29.3498 38.45 29.5365 38.59C29.7325 38.73 29.9565 38.8373 30.2085 38.912C30.4605 38.9867 30.7218 39.024 30.9925 39.024C31.3565 39.024 31.7018 38.9727 32.0285 38.87C32.3552 38.758 32.6398 38.6087 32.8825 38.422C33.1345 38.226 33.3305 37.9927 33.4705 37.722C33.6198 37.4513 33.6945 37.1527 33.6945 36.826ZM40.2932 39.374C40.1066 39.458 39.9199 39.5187 39.7332 39.556C39.5559 39.6027 39.3552 39.626 39.1312 39.626C38.8512 39.626 38.5899 39.5887 38.3472 39.514C38.1046 39.4393 37.8899 39.3227 37.7032 39.164C37.5259 38.996 37.3859 38.7907 37.2832 38.548C37.1806 38.296 37.1292 38.002 37.1292 37.666V32.99H36.0932V32.36H37.1292V30.078H37.8152V32.36H40.3212V32.99H37.8152V37.596C37.8152 38.1093 37.9459 38.4687 38.2072 38.674C38.4779 38.8793 38.8232 38.982 39.2432 38.982C39.4206 38.982 39.5886 38.9633 39.7472 38.926C39.9059 38.8887 40.0879 38.8233 40.2932 38.73V39.374ZM42.3896 36.21C42.4176 36.658 42.5156 37.0547 42.6836 37.4C42.8516 37.7453 43.0616 38.0393 43.3136 38.282C43.5656 38.5247 43.8503 38.7113 44.1676 38.842C44.4943 38.9633 44.8349 39.024 45.1896 39.024C45.7496 39.024 46.2209 38.9167 46.6036 38.702C46.9956 38.4873 47.3409 38.2213 47.6396 37.904L48.1156 38.324C47.7516 38.716 47.3363 39.038 46.8696 39.29C46.4123 39.542 45.8429 39.668 45.1616 39.668C44.6949 39.668 44.2469 39.5793 43.8176 39.402C43.3976 39.2247 43.0243 38.9727 42.6976 38.646C42.3803 38.3193 42.1283 37.9273 41.9416 37.47C41.7549 37.0127 41.6616 36.504 41.6616 35.944V35.916C41.6616 35.4027 41.7456 34.922 41.9136 34.474C42.0909 34.0167 42.3289 33.62 42.6276 33.284C42.9356 32.948 43.2949 32.682 43.7056 32.486C44.1163 32.29 44.5643 32.192 45.0496 32.192C45.5536 32.192 46.0063 32.29 46.4076 32.486C46.8089 32.6727 47.1496 32.934 47.4296 33.27C47.7189 33.606 47.9383 34.0027 48.0876 34.46C48.2463 34.908 48.3256 35.398 48.3256 35.93V35.958C48.3256 36.0047 48.3256 36.0467 48.3256 36.084C48.3256 36.112 48.3209 36.154 48.3116 36.21H42.3896ZM42.3896 35.594H47.5836C47.5556 35.23 47.4809 34.8847 47.3596 34.558C47.2476 34.222 47.0843 33.928 46.8696 33.676C46.6643 33.4147 46.4076 33.2093 46.0996 33.06C45.7916 32.9013 45.4323 32.822 45.0216 32.822C44.6669 32.822 44.3356 32.892 44.0276 33.032C43.7196 33.172 43.4489 33.368 43.2156 33.62C42.9916 33.8627 42.8049 34.1567 42.6556 34.502C42.5063 34.838 42.4176 35.202 42.3896 35.594ZM60.8667 32.36L57.7727 39.752C57.4553 40.4987 57.1053 41.0213 56.7227 41.32C56.3493 41.628 55.906 41.782 55.3927 41.782C55.122 41.782 54.8793 41.754 54.6647 41.698C54.45 41.6513 54.2213 41.5767 53.9787 41.474L54.2167 40.872C54.4033 40.9653 54.5853 41.0307 54.7627 41.068C54.94 41.1147 55.164 41.138 55.4347 41.138C55.6213 41.138 55.794 41.11 55.9527 41.054C56.1113 40.998 56.2607 40.9 56.4007 40.76C56.5407 40.6293 56.676 40.4567 56.8067 40.242C56.9373 40.0273 57.068 39.766 57.1987 39.458L53.7687 32.36H54.5667L57.5347 38.744L60.1107 32.36H60.8667ZM69.1773 35.93C69.1773 36.434 69.084 36.91 68.8973 37.358C68.72 37.806 68.4633 38.2027 68.1273 38.548C67.8006 38.8933 67.4133 39.1687 66.9653 39.374C66.5173 39.57 66.0273 39.668 65.4953 39.668C64.9633 39.668 64.4733 39.57 64.0253 39.374C63.5866 39.1687 63.204 38.898 62.8773 38.562C62.5506 38.226 62.294 37.834 62.1073 37.386C61.93 36.938 61.8413 36.462 61.8413 35.958V35.93C61.8413 35.426 61.93 34.95 62.1073 34.502C62.294 34.054 62.5506 33.6573 62.8773 33.312C63.2133 32.9667 63.6053 32.696 64.0533 32.5C64.5013 32.2947 64.9913 32.192 65.5233 32.192C66.0553 32.192 66.5406 32.2947 66.9793 32.5C67.4273 32.696 67.8146 32.962 68.1413 33.298C68.468 33.634 68.72 34.026 68.8973 34.474C69.084 34.922 69.1773 35.398 69.1773 35.902V35.93ZM68.4353 35.958V35.93C68.4353 35.5007 68.3606 35.0993 68.2113 34.726C68.062 34.3433 67.852 34.012 67.5813 33.732C67.32 33.452 67.0073 33.2327 66.6433 33.074C66.2886 32.9153 65.906 32.836 65.4953 32.836C65.0753 32.836 64.6833 32.92 64.3193 33.088C63.9646 33.2467 63.6566 33.466 63.3953 33.746C63.1433 34.0167 62.9426 34.3387 62.7933 34.712C62.6533 35.0853 62.5833 35.482 62.5833 35.902V35.93C62.5833 36.3593 62.658 36.7653 62.8073 37.148C62.9566 37.5213 63.162 37.848 63.4233 38.128C63.694 38.408 64.0066 38.6273 64.3613 38.786C64.7253 38.9447 65.1126 39.024 65.5233 39.024C65.9433 39.024 66.3306 38.9447 66.6853 38.786C67.0493 38.618 67.3573 38.3987 67.6093 38.128C67.8706 37.848 68.0713 37.5213 68.2113 37.148C68.3606 36.7747 68.4353 36.378 68.4353 35.958ZM77.2644 39.5H76.5784V38.17C76.3357 38.59 76.009 38.9447 75.5984 39.234C75.1877 39.5233 74.6557 39.668 74.0024 39.668C73.5544 39.668 73.153 39.598 72.7984 39.458C72.4437 39.3087 72.1404 39.1033 71.8884 38.842C71.6457 38.5807 71.459 38.2727 71.3284 37.918C71.207 37.554 71.1464 37.1573 71.1464 36.728V32.36H71.8324V36.602C71.8324 37.3393 72.0284 37.932 72.4204 38.38C72.8124 38.8187 73.3724 39.038 74.1004 39.038C74.4457 39.038 74.7677 38.9773 75.0664 38.856C75.3744 38.7253 75.6404 38.548 75.8644 38.324C76.0884 38.1 76.261 37.834 76.3824 37.526C76.513 37.2087 76.5784 36.8633 76.5784 36.49V32.36H77.2644V39.5ZM83.7223 33.004H83.6523C83.2416 33.004 82.8496 33.0833 82.4763 33.242C82.103 33.3913 81.7716 33.62 81.4823 33.928C81.2023 34.2267 80.9783 34.6 80.8103 35.048C80.6423 35.4867 80.5583 35.9953 80.5583 36.574V39.5H79.8723V32.36H80.5583V34.39C80.6983 34.0727 80.8756 33.7787 81.0903 33.508C81.305 33.2373 81.5476 33.0087 81.8183 32.822C82.089 32.626 82.383 32.4813 82.7003 32.388C83.027 32.2853 83.3676 32.2387 83.7223 32.248V33.004ZM96.773 35.93C96.773 36.5087 96.6704 37.0313 96.465 37.498C96.269 37.9553 96.0077 38.3473 95.681 38.674C95.3544 38.9913 94.981 39.2387 94.561 39.416C94.1504 39.584 93.7304 39.668 93.301 39.668C92.9464 39.668 92.6197 39.6213 92.321 39.528C92.0224 39.4347 91.7517 39.3087 91.509 39.15C91.2757 38.9913 91.061 38.8093 90.865 38.604C90.6784 38.3987 90.5104 38.184 90.361 37.96V39.5H89.675V29.28H90.361V33.956C90.5104 33.7227 90.683 33.4987 90.879 33.284C91.075 33.0693 91.2897 32.8827 91.523 32.724C91.7657 32.5653 92.0317 32.4393 92.321 32.346C92.6197 32.2433 92.9464 32.192 93.301 32.192C93.7304 32.192 94.1504 32.276 94.561 32.444C94.981 32.612 95.3544 32.8547 95.681 33.172C96.0077 33.4893 96.269 33.8813 96.465 34.348C96.6704 34.8053 96.773 35.3233 96.773 35.902V35.93ZM96.031 35.958V35.93C96.031 35.4633 95.9564 35.0387 95.807 34.656C95.6577 34.2733 95.4524 33.9513 95.191 33.69C94.939 33.4193 94.6404 33.214 94.295 33.074C93.959 32.9247 93.6044 32.85 93.231 32.85C92.8577 32.85 92.4937 32.9247 92.139 33.074C91.7937 33.2233 91.4857 33.4333 91.215 33.704C90.9444 33.9747 90.725 34.2967 90.557 34.67C90.3984 35.0433 90.319 35.4587 90.319 35.916V35.944C90.319 36.4013 90.3984 36.8213 90.557 37.204C90.725 37.5773 90.9444 37.8993 91.215 38.17C91.4857 38.4313 91.7937 38.6367 92.139 38.786C92.4937 38.9353 92.8577 39.01 93.231 39.01C93.623 39.01 93.987 38.94 94.323 38.8C94.6684 38.66 94.967 38.4593 95.219 38.198C95.471 37.9367 95.667 37.6193 95.807 37.246C95.9564 36.8633 96.031 36.434 96.031 35.958ZM104.895 39.5H104.209V38.17C103.967 38.59 103.64 38.9447 103.229 39.234C102.819 39.5233 102.287 39.668 101.633 39.668C101.185 39.668 100.784 39.598 100.429 39.458C100.075 39.3087 99.7712 39.1033 99.5192 38.842C99.2766 38.5807 99.0899 38.2727 98.9592 37.918C98.8379 37.554 98.7772 37.1573 98.7772 36.728V32.36H99.4632V36.602C99.4632 37.3393 99.6592 37.932 100.051 38.38C100.443 38.8187 101.003 39.038 101.731 39.038C102.077 39.038 102.399 38.9773 102.697 38.856C103.005 38.7253 103.271 38.548 103.495 38.324C103.719 38.1 103.892 37.834 104.013 37.526C104.144 37.2087 104.209 36.8633 104.209 36.49V32.36H104.895V39.5ZM112.277 37.554C112.277 37.8713 112.212 38.1607 112.081 38.422C111.96 38.674 111.787 38.8933 111.563 39.08C111.339 39.2573 111.078 39.3973 110.779 39.5C110.481 39.5933 110.159 39.64 109.813 39.64C109.291 39.64 108.768 39.5467 108.245 39.36C107.723 39.164 107.27 38.912 106.887 38.604L107.293 38.058C107.685 38.3567 108.096 38.59 108.525 38.758C108.955 38.9167 109.398 38.996 109.855 38.996C110.341 38.996 110.747 38.8747 111.073 38.632C111.409 38.3893 111.577 38.058 111.577 37.638V37.61C111.577 37.4047 111.526 37.2273 111.423 37.078C111.321 36.9287 111.181 36.798 111.003 36.686C110.826 36.574 110.625 36.4807 110.401 36.406C110.177 36.3313 109.939 36.2567 109.687 36.182C109.398 36.098 109.104 36.0093 108.805 35.916C108.516 35.8227 108.255 35.706 108.021 35.566C107.788 35.4167 107.597 35.2347 107.447 35.02C107.307 34.8053 107.237 34.5393 107.237 34.222V34.194C107.237 33.9047 107.293 33.6433 107.405 33.41C107.527 33.1673 107.69 32.9573 107.895 32.78C108.101 32.6027 108.348 32.4673 108.637 32.374C108.927 32.2713 109.244 32.22 109.589 32.22C110.019 32.22 110.457 32.29 110.905 32.43C111.363 32.57 111.769 32.7613 112.123 33.004L111.759 33.578C111.433 33.3633 111.078 33.1907 110.695 33.06C110.322 32.9293 109.944 32.864 109.561 32.864C109.067 32.864 108.67 32.9853 108.371 33.228C108.082 33.4613 107.937 33.7553 107.937 34.11V34.138C107.937 34.334 107.993 34.5067 108.105 34.656C108.217 34.796 108.362 34.9173 108.539 35.02C108.726 35.1227 108.941 35.216 109.183 35.3C109.426 35.3747 109.673 35.4493 109.925 35.524C110.215 35.608 110.499 35.7013 110.779 35.804C111.059 35.8973 111.311 36.0233 111.535 36.182C111.759 36.3313 111.937 36.5133 112.067 36.728C112.207 36.9427 112.277 37.2087 112.277 37.526V37.554ZM115.33 30.498H114.476V29.56H115.33V30.498ZM115.246 39.5H114.56V32.36H115.246V39.5ZM124.066 39.5H123.38V35.258C123.38 34.5207 123.184 33.9327 122.792 33.494C122.4 33.046 121.84 32.822 121.112 32.822C120.758 32.822 120.431 32.8873 120.132 33.018C119.834 33.1393 119.572 33.312 119.348 33.536C119.124 33.76 118.947 34.0307 118.816 34.348C118.695 34.656 118.634 34.9967 118.634 35.37V39.5H117.948V32.36H118.634V33.69C118.877 33.27 119.204 32.9153 119.614 32.626C120.025 32.3367 120.557 32.192 121.21 32.192C121.658 32.192 122.06 32.2667 122.414 32.416C122.769 32.556 123.068 32.7567 123.31 33.018C123.562 33.2793 123.749 33.592 123.87 33.956C124.001 34.3107 124.066 34.7027 124.066 35.132V39.5ZM126.772 36.21C126.8 36.658 126.898 37.0547 127.066 37.4C127.234 37.7453 127.444 38.0393 127.696 38.282C127.948 38.5247 128.233 38.7113 128.55 38.842C128.877 38.9633 129.218 39.024 129.572 39.024C130.132 39.024 130.604 38.9167 130.986 38.702C131.378 38.4873 131.724 38.2213 132.022 37.904L132.498 38.324C132.134 38.716 131.719 39.038 131.252 39.29C130.795 39.542 130.226 39.668 129.544 39.668C129.078 39.668 128.63 39.5793 128.2 39.402C127.78 39.2247 127.407 38.9727 127.08 38.646C126.763 38.3193 126.511 37.9273 126.324 37.47C126.138 37.0127 126.044 36.504 126.044 35.944V35.916C126.044 35.4027 126.128 34.922 126.296 34.474C126.474 34.0167 126.712 33.62 127.01 33.284C127.318 32.948 127.678 32.682 128.088 32.486C128.499 32.29 128.947 32.192 129.432 32.192C129.936 32.192 130.389 32.29 130.79 32.486C131.192 32.6727 131.532 32.934 131.812 33.27C132.102 33.606 132.321 34.0027 132.47 34.46C132.629 34.908 132.708 35.398 132.708 35.93V35.958C132.708 36.0047 132.708 36.0467 132.708 36.084C132.708 36.112 132.704 36.154 132.694 36.21H126.772ZM126.772 35.594H131.966C131.938 35.23 131.864 34.8847 131.742 34.558C131.63 34.222 131.467 33.928 131.252 33.676C131.047 33.4147 130.79 33.2093 130.482 33.06C130.174 32.9013 129.815 32.822 129.404 32.822C129.05 32.822 128.718 32.892 128.41 33.032C128.102 33.172 127.832 33.368 127.598 33.62C127.374 33.8627 127.188 34.1567 127.038 34.502C126.889 34.838 126.8 35.202 126.772 35.594ZM139.484 37.554C139.484 37.8713 139.419 38.1607 139.288 38.422C139.167 38.674 138.994 38.8933 138.77 39.08C138.546 39.2573 138.285 39.3973 137.986 39.5C137.688 39.5933 137.366 39.64 137.02 39.64C136.498 39.64 135.975 39.5467 135.452 39.36C134.93 39.164 134.477 38.912 134.094 38.604L134.5 38.058C134.892 38.3567 135.303 38.59 135.732 38.758C136.162 38.9167 136.605 38.996 137.062 38.996C137.548 38.996 137.954 38.8747 138.28 38.632C138.616 38.3893 138.784 38.058 138.784 37.638V37.61C138.784 37.4047 138.733 37.2273 138.63 37.078C138.528 36.9287 138.388 36.798 138.21 36.686C138.033 36.574 137.832 36.4807 137.608 36.406C137.384 36.3313 137.146 36.2567 136.894 36.182C136.605 36.098 136.311 36.0093 136.012 35.916C135.723 35.8227 135.462 35.706 135.228 35.566C134.995 35.4167 134.804 35.2347 134.654 35.02C134.514 34.8053 134.444 34.5393 134.444 34.222V34.194C134.444 33.9047 134.5 33.6433 134.612 33.41C134.734 33.1673 134.897 32.9573 135.102 32.78C135.308 32.6027 135.555 32.4673 135.844 32.374C136.134 32.2713 136.451 32.22 136.796 32.22C137.226 32.22 137.664 32.29 138.112 32.43C138.57 32.57 138.976 32.7613 139.33 33.004L138.966 33.578C138.64 33.3633 138.285 33.1907 137.902 33.06C137.529 32.9293 137.151 32.864 136.768 32.864C136.274 32.864 135.877 32.9853 135.578 33.228C135.289 33.4613 135.144 33.7553 135.144 34.11V34.138C135.144 34.334 135.2 34.5067 135.312 34.656C135.424 34.796 135.569 34.9173 135.746 35.02C135.933 35.1227 136.148 35.216 136.39 35.3C136.633 35.3747 136.88 35.4493 137.132 35.524C137.422 35.608 137.706 35.7013 137.986 35.804C138.266 35.8973 138.518 36.0233 138.742 36.182C138.966 36.3313 139.144 36.5133 139.274 36.728C139.414 36.9427 139.484 37.2087 139.484 37.526V37.554ZM146.306 37.554C146.306 37.8713 146.241 38.1607 146.11 38.422C145.989 38.674 145.816 38.8933 145.592 39.08C145.368 39.2573 145.107 39.3973 144.808 39.5C144.51 39.5933 144.188 39.64 143.842 39.64C143.32 39.64 142.797 39.5467 142.274 39.36C141.752 39.164 141.299 38.912 140.916 38.604L141.322 38.058C141.714 38.3567 142.125 38.59 142.554 38.758C142.984 38.9167 143.427 38.996 143.884 38.996C144.37 38.996 144.776 38.8747 145.102 38.632C145.438 38.3893 145.606 38.058 145.606 37.638V37.61C145.606 37.4047 145.555 37.2273 145.452 37.078C145.35 36.9287 145.21 36.798 145.032 36.686C144.855 36.574 144.654 36.4807 144.43 36.406C144.206 36.3313 143.968 36.2567 143.716 36.182C143.427 36.098 143.133 36.0093 142.834 35.916C142.545 35.8227 142.284 35.706 142.05 35.566C141.817 35.4167 141.626 35.2347 141.476 35.02C141.336 34.8053 141.266 34.5393 141.266 34.222V34.194C141.266 33.9047 141.322 33.6433 141.434 33.41C141.556 33.1673 141.719 32.9573 141.924 32.78C142.13 32.6027 142.377 32.4673 142.666 32.374C142.956 32.2713 143.273 32.22 143.618 32.22C144.048 32.22 144.486 32.29 144.934 32.43C145.392 32.57 145.798 32.7613 146.152 33.004L145.788 33.578C145.462 33.3633 145.107 33.1907 144.724 33.06C144.351 32.9293 143.973 32.864 143.59 32.864C143.096 32.864 142.699 32.9853 142.4 33.228C142.111 33.4613 141.966 33.7553 141.966 34.11V34.138C141.966 34.334 142.022 34.5067 142.134 34.656C142.246 34.796 142.391 34.9173 142.568 35.02C142.755 35.1227 142.97 35.216 143.212 35.3C143.455 35.3747 143.702 35.4493 143.954 35.524C144.244 35.608 144.528 35.7013 144.808 35.804C145.088 35.8973 145.34 36.0233 145.564 36.182C145.788 36.3313 145.966 36.5133 146.096 36.728C146.236 36.9427 146.306 37.2087 146.306 37.526V37.554Z" fill="#909090"/>
</svg>
