<!-- <svg xmlns:xlink="http://www.w3.org/1999/xlink" class="svg-stroke-right" width="411" height="96" viewBox="0 0 411 96" fill="none" xmlns="http://www.w3.org/2000/svg">
<path class="path-anim path-anim-2 path-anim-delay-1-1" d="M263.5 94H18.7426C17.947 94 17.1839 93.6839 16.6213 93.1213L2 78.5" stroke="url(&quot;#paint0_linear_2353_8412&quot;)" stroke-width="2.5px" stroke-linecap="round" fill="none"></path>
<path class="path-anim path-anim-1 path-anim-delay-95" d="M409 77V19.2426C409 18.447 408.684 17.6839 408.121 17.1213L393.879 2.87868C393.316 2.31607 392.553 2 391.757 2H4" stroke="url(&quot;#paint1_linear_2353_8412&quot;)" stroke-width="2.5px" stroke-linecap="round" fill="none"></path>
<defs>
<linearGradient id="paint0_linear_2353_8412" x1="353.5" y1="101" x2="-7.5" y2="75" gradientUnits="userSpaceOnUse">
<stop stop-color="#F8CF3E"></stop>
<stop offset="1" stop-color="#FC6756"></stop>
<stop offset="1" stop-color="#FC6756"></stop>
</linearGradient>
<linearGradient id="paint1_linear_2353_8412" x1="-6.49989" y1="-9.50001" x2="384.234" y2="-140.863" gradientUnits="userSpaceOnUse">
<stop offset="0.236372" stop-color="#724CE8"></stop>
<stop offset="1" stop-color="#26F4D0"></stop>
</linearGradient>
<linearGradient id="paint0_linear_2353_8412" x1="353.5" y1="101" x2="-7.5" y2="75" gradientUnits="userSpaceOnUse">
<stop stop-color="#F8CF3E"></stop>
<stop offset="1" stop-color="#FC6756"></stop>
<stop offset="1" stop-color="#FC6756"></stop>
</linearGradient><linearGradient id="paint1_linear_2353_8412" x1="-6.49989" y1="-9.50001" x2="384.234" y2="-140.863" gradientUnits="userSpaceOnUse">
<stop offset="0.236372" stop-color="#724CE8"></stop>
<stop offset="1" stop-color="#26F4D0"></stop>
</linearGradient></defs>
</svg> -->

<svg xmlns:xlink="http://www.w3.org/1999/xlink" class="svg-stroke-right" width="411" height="96" viewBox="0 0 411 96" xmlns="http://www.w3.org/2000/svg">
  <path class="path-anim path-anim-2 path-anim-delay-1-1" d="M263.5 94H18.7426C17.947 94 17.1839 93.6839 16.6213 93.1213L2 78.5" stroke="url(#paint0_linear_2353_8412)" stroke-width="2.5px" stroke-linecap="round" fill="none"></path>
  <path class="path-anim path-anim-1 path-anim-delay-95" d="M409 77V19.2426C409 18.447 408.684 17.6839 408.121 17.1213L393.879 2.87868C393.316 2.31607 392.553 2 391.757 2H4" stroke="url(#paint1_linear_2353_8412)" stroke-width="2.5px" stroke-linecap="round" fill="none"></path>
  <defs>
    <linearGradient id="paint0_linear_2353_8412" x1="353.5" y1="101" x2="-7.5" y2="75" gradientUnits="userSpaceOnUse">
      <stop stop-color="#F8CF3E"></stop>
      <stop offset="1" stop-color="#FC6756"></stop>
      <stop offset="1" stop-color="#FC6756"></stop>
    </linearGradient>
    <linearGradient id="paint1_linear_2353_8412" x1="-6.49989" y1="-9.50001" x2="384.234" y2="-140.863" gradientUnits="userSpaceOnUse">
      <stop offset="0.236372" stop-color="#724CE8"></stop>
      <stop offset="1" stop-color="#26F4D0"></stop>
    </linearGradient>
  </defs>
</svg>
